<?xml version="1.0" encoding="UTF-8" standalone="no"?>
<svg
   xmlns:dc="http://purl.org/dc/elements/1.1/"
   xmlns:cc="http://creativecommons.org/ns#"
   xmlns:rdf="http://www.w3.org/1999/02/22-rdf-syntax-ns#"
   xmlns:svg="http://www.w3.org/2000/svg"
   xmlns="http://www.w3.org/2000/svg"
   xmlns:xlink="http://www.w3.org/1999/xlink"
   xmlns:sodipodi="http://sodipodi.sourceforge.net/DTD/sodipodi-0.dtd"
   xmlns:inkscape="http://www.inkscape.org/namespaces/inkscape"
   width="48"
   viewBox="0 0 13.546667 13.546667"
   height="48"
   id="svg2"
   version="1.1"
   inkscape:version="0.48.4 r9939"
   sodipodi:docname=" meeting-attending.svg">
  <metadata
     id="metadata62">
    <rdf:RDF>
      <cc:Work
         rdf:about="">
        <dc:format>image/svg+xml</dc:format>
        <dc:type
           rdf:resource="http://purl.org/dc/dcmitype/StillImage" />
        <dc:title></dc:title>
      </cc:Work>
    </rdf:RDF>
  </metadata>
  <sodipodi:namedview
     pagecolor="#ffffff"
     bordercolor="#666666"
     borderopacity="1"
     objecttolerance="10"
     gridtolerance="10"
     guidetolerance="10"
     inkscape:pageopacity="0"
     inkscape:pageshadow="2"
     inkscape:window-width="1366"
     inkscape:window-height="716"
     id="namedview60"
     showgrid="false"
     inkscape:zoom="5.6568543"
     inkscape:cx="14.556026"
     inkscape:cy="33.945246"
     inkscape:window-x="0"
     inkscape:window-y="28"
     inkscape:window-maximized="1"
     inkscape:current-layer="g38"
     showguides="true"
     inkscape:guide-bbox="true" />
  <defs
     id="defs4">
    <linearGradient
       id="linearGradient3922">
      <stop
         style="stop-color:#004455;stop-opacity:1;"
         offset="0"
         id="stop3924" />
      <stop
         style="stop-color:#005b72;stop-opacity:1;"
         offset="1"
         id="stop3926" />
    </linearGradient>
    <clipPath
       clipPathUnits="userSpaceOnUse"
       id="clipPath6">
      <rect
         width="20"
         x="1"
         y="1"
         rx="2"
         height="20"
         style="fill:#fff;fill-rule:evenodd"
         id="rect8" />
    </clipPath>
    <clipPath
       clipPathUnits="userSpaceOnUse"
       id="clipPath10">
      <rect
         width="84"
         x="6"
         y="6"
         rx="6"
         height="84"
         style="fill:#fff"
         id="rect12" />
    </clipPath>
    <clipPath
       clipPathUnits="userSpaceOnUse"
       id="clipPath14">
      <path
         d="M 54.1,12.5 12.9,54.7 C -2.7,70.3 23,69 32.3,74.9 36.6,77.7 18.5,81.3 22.2,85 c 3.6,3.7 21.7,7.1 25.3,10.7 3.6,3.7 -7.3,7.6 -3.7,11.3 3.5,3.7 11.9,0.2 13.4,8.6 1.1,6.2 15.4,3.1 21.8,-2.2 4,-3.4 -6.9,-3.4 -3.3,-7.1 9,-9.1 17,-4.1 20.3,-12.5 1.8,-4.5 -13.6,-7.7 -9.5,-10.6 9.8,-6.9 45.8,-10.4 29.2,-27 L 73,12.5 c -5.3,-5 -14,-5 -18.9,0 z m -9.9,64.7 c 0.9,0 30.8,4 19.3,7.1 -4.4,1.2 -24.6,-7.1 -19.3,-7.1 z m 57.2,16.6 c 0,2.1 16.3,3.3 15.4,-0.5 -1.3,-6.4 -13.6,-5.9 -15.4,0.5 z m -69.5,11.1 c 3.7,3.2 9.3,-0.7 11.1,-5.2 -3.6,-4.7 -16.9,0.3 -11.1,5.2 z m 67.5,-6.7 c -4.6,4.2 0.8,8.6 5.3,5.7 1.2,-0.8 -0.1,-4.7 -5.3,-5.7 z"
         id="path16" />
    </clipPath>
    <clipPath
       clipPathUnits="userSpaceOnUse"
       id="clipPath18">
      <rect
         width="96"
         x="-100"
         y="-0"
         height="96"
         style="fill:#fff"
         id="rect20" />
    </clipPath>
    <clipPath
       clipPathUnits="userSpaceOnUse"
       id="clipPath22">
      <path
         d="M 95.311,352.545 L 476.403,352.545 L 476.403,71.4229 L 95.311,71.4229 L 95.311,352.545 z"
         id="path24" />
    </clipPath>
    <clipPath
       clipPathUnits="userSpaceOnUse"
       id="clipPath26">
      <path
         d="M 93.311,354.545 L 478.511,354.545 L 478.511,69.1846 L 93.311,69.1846 L 93.311,354.545 z"
         id="path28" />
    </clipPath>
    <clipPath
       clipPathUnits="userSpaceOnUse"
       id="clipPath30">
      <path
         d="M 93.311,69.185 L 478.511,69.185 L 478.511,354.545 L 93.311,354.545 L 93.311,69.185 z"
         id="path32" />
    </clipPath>
    <clipPath
       clipPathUnits="userSpaceOnUse"
       id="clipPath34">
      <path
         d="M 92.311,355.545 L 479.511,355.545 L 479.511,68.1846 L 92.311,68.1846 L 92.311,355.545 z"
         id="path36" />
    </clipPath>
    <linearGradient
       inkscape:collect="always"
       xlink:href="#linearGradient2251"
       id="linearGradient2258"
       x1="21.5"
       y1="43.467159"
       x2="21.5"
       y2="47.532516"
       gradientUnits="userSpaceOnUse" />
    <linearGradient
       inkscape:collect="always"
       id="linearGradient2251">
      <stop
         style="stop-color:#729fcf;stop-opacity:1;"
         offset="0"
         id="stop2253" />
      <stop
         style="stop-color:#729fcf;stop-opacity:0;"
         offset="1"
         id="stop2255" />
    </linearGradient>
    <linearGradient
       gradientTransform="matrix(0.13,0,0,0.14103,2.41492,-32.46617)"
       xlink:href="#linearGradient3896"
       id="linearGradient3006"
       x1="5.3039999"
       gradientUnits="userSpaceOnUse"
       x2="61.748001" />
    <linearGradient
       id="linearGradient3896">
      <stop
         offset="0"
         style="stop-color:#5dac12"
         id="stop9" />
      <stop
         offset="1"
         style="stop-color:#76c925"
         id="stop11" />
    </linearGradient>
    <linearGradient
       inkscape:collect="always"
       xlink:href="#linearGradient6963-199-896"
       id="linearGradient6457"
       gradientUnits="userSpaceOnUse"
       gradientTransform="matrix(4.895429,-1.3086414,1.1623533,4.3761806,-614.63541,-97.40367)"
       x1="15.194299"
       y1="13.018784"
       x2="14.486301"
       y2="26.07235" />
    <linearGradient
       inkscape:collect="always"
       id="linearGradient6963-199-896">
      <stop
         offset="0"
         id="stop7684"
         style="stop-color:#a2c6ff;stop-opacity:1" />
      <stop
         offset="1"
         id="stop7686"
         style="stop-color:#9f7e42;stop-opacity:1" />
    </linearGradient>
    <linearGradient
       id="linearGradient2911-613-519">
      <stop
         offset="0"
         id="stop7648"
         style="stop-color:#ffffe0;stop-opacity:1;" />
      <stop
         offset="1"
         id="stop7650"
         style="stop-color:#ffe588;stop-opacity:0;" />
    </linearGradient>
    <linearGradient
       id="linearGradient2911-198-956">
      <stop
         offset="0"
         id="stop7654"
         style="stop-color:#ffffe0;stop-opacity:1;" />
      <stop
         offset="1"
         id="stop7656"
         style="stop-color:#ffe588;stop-opacity:0;" />
    </linearGradient>
    <linearGradient
       id="linearGradient2911-977-39">
      <stop
         offset="0"
         id="stop7660"
         style="stop-color:#ffffe0;stop-opacity:1;" />
      <stop
         offset="1"
         id="stop7662"
         style="stop-color:#ffe588;stop-opacity:0;" />
    </linearGradient>
    <linearGradient
       inkscape:collect="always"
       xlink:href="#linearGradient2782-839-396"
       id="linearGradient7090"
       gradientUnits="userSpaceOnUse"
       gradientTransform="matrix(4.9036558,0,0,4.3816704,-363.57105,-134.91588)"
       x1="20"
       y1="13.577349"
       x2="17.269999"
       y2="32.698772" />
    <linearGradient
       inkscape:collect="always"
       id="linearGradient2782-839-396">
      <stop
         offset="0"
         id="stop7582"
         style="stop-color:#8dc5ff;stop-opacity:1" />
      <stop
         offset="1"
         id="stop7584"
         style="stop-color:#f2c600;stop-opacity:1" />
    </linearGradient>
    <linearGradient
       inkscape:collect="always"
       xlink:href="#linearGradient6963-199-896-0"
       id="linearGradient6457-9"
       gradientUnits="userSpaceOnUse"
       gradientTransform="matrix(4.895429,-1.3086414,1.1623533,4.3761806,-614.63541,-97.40367)"
       x1="15.194299"
       y1="13.018784"
       x2="14.486301"
       y2="26.07235" />
    <linearGradient
       inkscape:collect="always"
       id="linearGradient6963-199-896-0">
      <stop
         offset="0"
         id="stop7684-1"
         style="stop-color:#a2c6ff;stop-opacity:1" />
      <stop
         offset="1"
         id="stop7686-7"
         style="stop-color:#9f7e42;stop-opacity:1" />
    </linearGradient>
  </defs>
  <g
     style="fill-rule:evenodd"
     id="g38">
    <rect
       width="11.746"
       x=".9"
       y=".901"
       rx="5.873"
       height="11.746"
       style="fill:#ffffff;stroke-width:0.02822222000000000;stroke-miterlimit:4;stroke-dasharray:none;stroke:none;stroke-opacity:1;fill-opacity:1"
       id="rect42" />
    <g
       transform="matrix(0.11531627,0,0,0.11531627,3.9211615,3.8898451)"
       id="layer1" />
    <g
       id="g3389"
       style="fill:#f9f9f9;stroke:#f9f9f9;stroke-linejoin:round"
       transform="matrix(0.93639221,0.01779363,-0.01779363,0.93639221,0.58795522,0.39238226)">
      <g
         id="g3393"
         style="fill-opacity:0;stroke-width:0.58899999" />
    </g>
    <g
       transform="matrix(-0.24760369,0,0,0.24760369,14.957852,-1.0120632)"
       style="fill:#e9c6af"
       id="g6">
      <path
         inkscape:connector-curvature="0"
         style="fill-opacity:0.59999999999999998;fill:#e9c6af"
         d="m 23.695312,23.445668 c -2.253906,0 -4.0625,1.785157 -4.0625,4 0.0039,0.234376 0.01953,0.578126 0.04297,0.863282 -0.386719,0.171875 -0.414062,0.960937 -0.08594,1.773437 0.128906,0.320313 0.292968,0.566407 0.472656,0.773438 0.04687,0.226562 0.03516,0.328125 0.08984,0.589843 0.148437,0.476563 0.746094,1.410157 1.296875,2.179688 0.05469,0.59375 0.109375,1.191406 0,1.867188 -1.585938,1.382812 -5.671875,1.976562 -5.664063,3.40625 l -0.08984,0.546874 16,0 -0.08594,-0.546874 c -0.0039,-1.222657 -4.097656,-1.976563 -5.664063,-3.40625 -0.0625,-0.550782 -0.07422,-1.097657 -0.04297,-1.636719 0.5,-0.816407 1.171875,-1.878907 1.339844,-2.410157 0.0625,-0.269531 0.08203,-0.449218 0.128906,-0.683593 0.152344,-0.191407 0.28125,-0.40625 0.390625,-0.679688 0.3125,-0.769531 0.289062,-1.507812 -0.04297,-1.726562 0.01953,-0.3125 0.03516,-0.640625 0.04297,-0.910157 0,-2.214843 -1.808594,-4 -4.066407,-4 z"
         id="path8" />
      <path
         inkscape:connector-curvature="0"
         d="m 36.304688,19.445668 c -3.386719,0 -6.097657,2.679688 -6.097657,6 0.0078,0.355469 0.03125,0.863281 0.0625,1.296875 -0.578125,0.257813 -0.621093,1.441406 -0.128906,2.65625 0.195313,0.484375 0.445313,0.855469 0.714844,1.160156 0.06641,0.34375 0.04687,0.496094 0.128906,0.886719 0.226563,0.714844 1.121094,2.117188 1.945313,3.273438 0.08203,0.886718 0.164062,1.785156 0,2.792968 -2.378907,2.074219 -8.503907,2.96875 -8.496094,5.117188 l -0.128906,0.816406 24,0 -0.132813,-0.816406 c -0.0078,-1.839844 -6.144531,-2.96875 -8.496094,-5.117188 -0.09375,-0.820312 -0.113281,-1.644531 -0.0625,-2.453125 0.75,-1.21875 1.757813,-2.816406 2.007813,-3.613281 0.09375,-0.402344 0.125,-0.675781 0.195312,-1.023438 0.226563,-0.285156 0.417969,-0.609374 0.585938,-1.023437 0.464844,-1.15625 0.433594,-2.257813 -0.06641,-2.589844 0.03125,-0.464843 0.05078,-0.960937 0.06641,-1.363281 0,-3.320312 -2.714844,-6 -6.097656,-6 z"
         id="path10"
         style="fill:#e9c6af" />
    </g>
  </g>
</svg>
