<?xml version="1.0" encoding="UTF-8" standalone="no"?>
<svg
   xmlns:dc="http://purl.org/dc/elements/1.1/"
   xmlns:cc="http://creativecommons.org/ns#"
   xmlns:rdf="http://www.w3.org/1999/02/22-rdf-syntax-ns#"
   xmlns:svg="http://www.w3.org/2000/svg"
   xmlns="http://www.w3.org/2000/svg"
   xmlns:sodipodi="http://sodipodi.sourceforge.net/DTD/sodipodi-0.dtd"
   xmlns:inkscape="http://www.inkscape.org/namespaces/inkscape"
   height="48"
   width="48"
   version="1.1"
   viewBox="0 0 13.546667 13.546667"
   id="svg2"
   inkscape:version="0.48.4 r9939"
   sodipodi:docname="qtlinguist.svg">
  <sodipodi:namedview
     pagecolor="#ffffff"
     bordercolor="#666666"
     borderopacity="1"
     objecttolerance="10"
     gridtolerance="10"
     guidetolerance="10"
     inkscape:pageopacity="0"
     inkscape:pageshadow="2"
     inkscape:window-width="1366"
     inkscape:window-height="716"
     id="namedview23"
     showgrid="false"
     inkscape:zoom="4.9166667"
     inkscape:cx="71.620561"
     inkscape:cy="-11.233206"
     inkscape:window-x="0"
     inkscape:window-y="28"
     inkscape:window-maximized="1"
     inkscape:current-layer="g13" />
  <metadata
     id="metadata4">
    <rdf:RDF>
      <cc:Work
         rdf:about="">
        <dc:format>image/svg+xml</dc:format>
        <dc:type
           rdf:resource="http://purl.org/dc/dcmitype/StillImage" />
        <dc:title></dc:title>
      </cc:Work>
    </rdf:RDF>
  </metadata>
  <defs
     id="defs6">
    <linearGradient
       id="linearGradient3004"
       gradientUnits="userSpaceOnUse"
       x2="0"
       gradientTransform="matrix(1.10525 0 0 1.10525 -134.27874 -295.76183)"
       y1="279.1"
       y2="268.33">
      <stop
         stop-color="#ae2434"
         offset="0"
         id="stop9" />
      <stop
         stop-color="#d67038"
         offset="1"
         id="stop11" />
    </linearGradient>
  </defs>
  <g
     id="g13"
     fill-rule="evenodd">
    <rect
       rx="5.926"
       height="11.853"
       width="11.853"
       y="0.847"
       x="0.847"
       id="rect17"
       style="fill:#44a41c;fill-opacity:1"
       fill="url(#linearGradient3004)" />
    <path
       d="m 5.2912497,3.3917606 c 0.4947796,-0.049244 1.0317189,0.07555 1.3959761,0.4293469 0.2512674,0.2350814 0.4064144,0.5524566 0.5109698,0.8759018 0.06206,0.2118086 0.1052296,0.4290128 0.1342368,0.6479035 0.07285,0.6384596 0.066104,1.287381 -0.027306,1.9234755 -0.081959,0.5015259 -0.2371043,1.023626 -0.6087794,1.3895654 -0.1443548,0.1477281 -0.3305266,0.2381185 -0.5146805,0.324797 0.028015,0.150426 0.073189,0.309953 0.1838167,0.421592 0.1180434,0.09781 0.2816228,0.09511 0.4266495,0.0914 -5.725e-4,0.206411 0,0.4128218 0,0.6192323 -0.2131588,0.0297 -0.4276615,0.07082 -0.6438573,0.05091 C 5.9567057,10.146694 5.7590603,10.089342 5.6187582,9.9507285 5.3735559,9.7142977 5.2851941,9.3706117 5.2086331,9.0502067 5.0008711,8.9982667 4.7998554,8.9112461 4.6339158,8.7736395 4.3226111,8.5200091 4.1334017,8.1469855 4.0224386,7.7672167 3.8591959,7.1999217 3.8251327,6.6046351 3.8312015,6.0170975 3.8342356,5.5840384 3.8753733,5.1486178 3.9843247,4.7287112 4.0804493,4.3671543 4.2389663,4.0082955 4.5128361,3.7455565 4.7226194,3.5435319 5.0022209,3.4217755 5.2912628,3.3917592 z"
       id="path12"
       inkscape:connector-curvature="0"
       style="fill:#ffffff" />
    <path
       d="m 8.1111968,3.7270108 c 0.1844876,0.010789 0.3672906,0.037099 0.5511056,0.052614 0.00512,0.3244556 0.00152,0.6485769 0.0018,0.9730349 0.2084352,0.012817 0.4165324,0.032712 0.6249679,0.042835 0.00151,0.2027017 3.747e-4,0.405066 8.834e-4,0.6077677 -0.2087807,-0.00843 -0.4175526,-0.016528 -0.6259883,-0.027991 0.0018,0.7649369 -7.959e-4,1.5298762 0.00152,2.2948121 0.00777,0.1318741 0.00812,0.2937669 0.1335599,0.3737021 0.1750451,0.038123 0.3490779,-0.02359 0.5102954,-0.086344 0.00652,-0.00229 0.01958,-0.00741 0.025962,-0.00982 -0.0018,0.1858396 -8.544e-4,0.3716777 -8.544e-4,0.5575162 C 9.0234674,8.6359938 8.6831567,8.7348157 8.3428477,8.6879341 8.2001662,8.6589511 8.0622215,8.5881004 7.9785768,8.4656693 7.8298397,8.2552102 7.8163483,7.9857301 7.8176976,7.7371583 7.8183786,6.9364705 7.8182701,6.1357816 7.8182701,5.33543 7.7224831,5.33272 7.6263599,5.33006 7.5309112,5.33543 L 7.5191422,5.313507 c -0.00572,-0.2131572 -0.00184,-0.4266517 -0.00184,-0.6401461 0.019225,0.00168 0.058009,0.00474 0.077572,0.00609 0.096462,0.00741 0.1932597,0.012141 0.2897193,0.017878 0.074875,-0.3237921 0.1521117,-0.6469017 0.2269862,-0.9703457 z"
       id="path16"
       inkscape:connector-curvature="0"
       style="fill:#ffffff" />
    <path
       d="m 5.1441969,4.6194361 c 0.057675,-0.2131569 0.196632,-0.408101 0.4064144,-0.491746 0.1082656,0.090053 0.2253026,0.1774067 0.2941037,0.3035472 0.1490752,0.2570034 0.1784179,0.5592008 0.2121483,0.8485818 0.04857,0.6300278 0.04215,1.2641047 -0.00305,1.8944712 C 6.014718,7.4835709 5.9917717,7.8124126 5.8187501,8.0815541 5.7553416,8.1867841 5.651461,8.2562638 5.5512902,8.3220302 5.2855186,8.1985903 5.184674,7.8977409 5.1239658,7.6329832 4.9978254,7.012061 5.0069305,6.3742747 5.0146876,5.7439081 5.0281634,5.3671731 5.0433454,4.9847042 5.1438637,4.6194361 z"
       id="path18"
       inkscape:connector-curvature="0"
       style="fill:#44a41c" />
    <path
       d="m 5.5100226,4.1073958 c 0.1639159,-0.022264 0.3453696,0.00777 0.465776,0.129513 0.218556,0.2097853 0.2806112,0.5237878 0.3207495,0.8114825 0.071501,0.5379517 0.062394,1.081974 0.052278,1.6236369 C 6.3288991,7.0254947 6.3154271,7.3830065 6.228416,7.7280338 6.169396,7.9364689 6.0705751,8.1567109 5.8739419,8.2683467 5.7616324,8.3361397 5.6250335,8.3162427 5.5009186,8.3084887 l 0.010092,-0.00672 C 5.6111816,8.2359875 5.7150618,8.1665095 5.7784693,8.0612793 5.9514898,7.7921328 5.9744254,7.4632926 6.0135513,7.1540127 6.0584101,6.5236478 6.0648217,5.8895731 6.0165854,5.2595456 5.982867,4.9701645 5.9535158,4.667967 5.8044401,4.4109638 5.7356365,4.2848231 5.618603,4.1974704 5.5103391,4.1074166 z"
       id="path20"
       inkscape:connector-curvature="0"
       style="fill:#44a41c;fill-opacity:1" />
    <ellipse
       sodipodi:ry="3.5001078"
       sodipodi:rx="3.5"
       sodipodi:cy="713.8125"
       sodipodi:cx="224.7366"
       transform="matrix(0.28222223,0,0,0.28222223,-49.977729,-194.23835)"
       ry="3.5001078"
       rx="3.5"
       cy="713.8125"
       cx="224.7366"
       id="ellipse3285"
       style="fill:none;stroke:none"
       d="m 228.2366,713.8125 c 0,1.93306 -1.567,3.50011 -3.5,3.50011 -1.93299,0 -3.5,-1.56705 -3.5,-3.50011 0,-1.93306 1.56701,-3.50011 3.5,-3.50011 1.933,0 3.5,1.56705 3.5,3.50011 z" />
    <rect
       width="4.8969774"
       x="-1.3921697"
       y="13.16809"
       height="1.4240738"
       style="fill:#ffdd55;fill-opacity:1;fill-rule:evenodd"
       id="rect30"
       transform="matrix(0.70451359,-0.7096905,0.68196737,0.7313826,0,0)" />
    <path
       style="fill:#d35f5f;fill-rule:evenodd"
       d="m 11.264217,7.3303197 0.971068,1.041431 0.61057,-0.615055 c 0,0 0.06221,-0.226753 -0.344633,-0.662653 -0.391721,-0.420117 -0.642091,-0.363009 -0.642091,-0.363009 l -0.594914,0.599286 z"
       id="path32-8"
       inkscape:connector-curvature="0" />
    <path
       style="fill:#ffecc3;fill-opacity:1;fill-rule:evenodd"
       d="m 8.0079409,10.610724 -0.516422,1.530043 1.487499,-0.488602 -0.971077,-1.041441 z"
       id="path34"
       inkscape:connector-curvature="0" />
    <path
       style="fill:#2d2d2d;fill-rule:evenodd"
       d="m 7.7456149,11.371333 -0.254096,0.769434 0.747864,-0.239888 -0.493768,-0.529546 z"
       id="path36-7"
       inkscape:connector-curvature="0" />
  </g>
</svg>
