<?xml version="1.0" encoding="UTF-8" standalone="no"?>
<svg
   xmlns:dc="http://purl.org/dc/elements/1.1/"
   xmlns:cc="http://creativecommons.org/ns#"
   xmlns:rdf="http://www.w3.org/1999/02/22-rdf-syntax-ns#"
   xmlns:svg="http://www.w3.org/2000/svg"
   xmlns="http://www.w3.org/2000/svg"
   xmlns:sodipodi="http://sodipodi.sourceforge.net/DTD/sodipodi-0.dtd"
   xmlns:inkscape="http://www.inkscape.org/namespaces/inkscape"
   height="48"
   width="48"
   version="1.1"
   viewBox="0 0 13.546667 13.546667"
   id="svg2"
   inkscape:version="0.48.4 r9939"
   sodipodi:docname="accerciser.svg">
  <sodipodi:namedview
     pagecolor="#ffffff"
     bordercolor="#666666"
     borderopacity="1"
     objecttolerance="10"
     gridtolerance="10"
     guidetolerance="10"
     inkscape:pageopacity="0"
     inkscape:pageshadow="2"
     inkscape:window-width="1366"
     inkscape:window-height="716"
     id="namedview23"
     showgrid="false"
     inkscape:zoom="4.9166667"
     inkscape:cx="71.620561"
     inkscape:cy="-11.233206"
     inkscape:window-x="0"
     inkscape:window-y="28"
     inkscape:window-maximized="1"
     inkscape:current-layer="g13" />
  <metadata
     id="metadata4">
    <rdf:RDF>
      <cc:Work
         rdf:about="">
        <dc:format>image/svg+xml</dc:format>
        <dc:type
           rdf:resource="http://purl.org/dc/dcmitype/StillImage" />
        <dc:title></dc:title>
      </cc:Work>
    </rdf:RDF>
  </metadata>
  <defs
     id="defs6">
    <linearGradient
       id="linearGradient3004"
       gradientUnits="userSpaceOnUse"
       x2="0"
       gradientTransform="matrix(1.10525 0 0 1.10525 -134.27874 -295.76183)"
       y1="279.1"
       y2="268.33">
      <stop
         stop-color="#ae2434"
         offset="0"
         id="stop9" />
      <stop
         stop-color="#d67038"
         offset="1"
         id="stop11" />
    </linearGradient>
  </defs>
  <g
     id="g13"
     fill-rule="evenodd">
    <rect
       rx="5.926"
       height="11.853"
       width="11.853"
       y="0.847"
       x="0.847"
       id="rect17"
       style="fill:#44a41c;fill-opacity:1"
       fill="url(#linearGradient3004)" />
    <path
       d="m 5.8078599,3.6213651 c 0.4947796,-0.049244 1.0317189,0.07555 1.3959761,0.4293469 0.2512674,0.2350814 0.4064144,0.5524566 0.5109698,0.8759018 0.06206,0.2118086 0.1052296,0.4290128 0.1342368,0.6479035 0.07285,0.6384596 0.066104,1.287381 -0.027306,1.9234755 -0.081959,0.5015259 -0.2371043,1.023626 -0.6087794,1.3895654 -0.1443548,0.1477281 -0.3305266,0.2381185 -0.5146805,0.324797 0.028015,0.150426 0.073189,0.309953 0.1838167,0.421592 0.1180434,0.09781 0.2816228,0.09511 0.4266495,0.0914 -5.725e-4,0.206411 0,0.4128218 0,0.6192328 C 7.0955841,10.37428 6.8810814,10.4154 6.6648856,10.39549 6.4733159,10.376299 6.2756705,10.318947 6.1353684,10.180333 5.8901661,9.9439022 5.8018043,9.6002162 5.7252433,9.2798112 5.5174813,9.2278712 5.3164656,9.1408506 5.150526,9.003244 4.8392213,8.7496136 4.6500119,8.37659 4.5390488,7.9968212 4.3758061,7.4295262 4.3417429,6.8342396 4.3478117,6.246702 4.3508458,5.8136429 4.3919835,5.3782223 4.5009349,4.9583157 4.5970595,4.5967588 4.7555765,4.2379 5.0294463,3.975161 5.2392296,3.7731364 5.5188311,3.65138 5.807873,3.6213637 z"
       id="path12"
       inkscape:connector-curvature="0"
       style="fill:#ffffff" />
    <path
       d="m 8.627807,3.9566153 c 0.1844876,0.010789 0.3672906,0.037099 0.5511056,0.052614 0.00512,0.3244556 0.00152,0.6485769 0.0018,0.9730349 0.2084352,0.012817 0.4165324,0.032712 0.6249679,0.042835 0.00151,0.2027017 3.747e-4,0.405066 8.834e-4,0.6077677 -0.2087807,-0.00843 -0.4175526,-0.016528 -0.6259883,-0.027991 0.0018,0.7649369 -7.959e-4,1.5298762 0.00152,2.2948121 0.00777,0.1318741 0.00812,0.2937669 0.1335599,0.3737021 0.1750451,0.038123 0.3490779,-0.02359 0.5102954,-0.086344 0.00652,-0.00229 0.01958,-0.00741 0.025962,-0.00982 -0.0018,0.1858396 -8.544e-4,0.3716777 -8.544e-4,0.5575162 C 9.5400776,8.8655983 9.1997669,8.9644202 8.8594579,8.9175386 8.7167764,8.8885556 8.5788317,8.8177049 8.495187,8.6952738 8.3464499,8.4848147 8.3329585,8.2153346 8.3343078,7.9667628 c 6.81e-4,-0.8006878 5.725e-4,-1.6013767 5.725e-4,-2.4017283 -0.095787,-0.00271 -0.1919102,-0.00537 -0.2873589,0 l -0.011769,-0.021923 c -0.00572,-0.2131572 -0.00184,-0.4266517 -0.00184,-0.6401461 0.019225,0.00168 0.058009,0.00474 0.077572,0.00609 0.096462,0.00741 0.1932597,0.012141 0.2897193,0.017878 0.074875,-0.3237921 0.1521117,-0.6469017 0.2269862,-0.9703457 z"
       id="path16"
       inkscape:connector-curvature="0"
       style="fill:#ffffff" />
    <path
       d="m 5.6608071,4.8490406 c 0.057675,-0.2131569 0.196632,-0.408101 0.4064144,-0.491746 0.1082656,0.090053 0.2253026,0.1774067 0.2941037,0.3035472 0.1490752,0.2570034 0.1784179,0.5592008 0.2121483,0.8485818 0.04857,0.6300278 0.04215,1.2641047 -0.00305,1.8944712 C 6.5313282,7.7131754 6.5083819,8.0420171 6.3353603,8.3111586 6.2719518,8.4163886 6.1680712,8.4858683 6.0679004,8.5516347 5.8021288,8.4281948 5.7012842,8.1273454 5.640576,7.8625877 5.5144356,7.2416655 5.5235407,6.6038792 5.5312978,5.9735126 5.5447736,5.5967776 5.5599556,5.2143087 5.6604739,4.8490406 z"
       id="path18"
       inkscape:connector-curvature="0"
       style="fill:#44a41c" />
    <path
       d="m 6.0266328,4.3370003 c 0.1639159,-0.022264 0.3453696,0.00777 0.465776,0.129513 0.218556,0.2097853 0.2806112,0.5237878 0.3207495,0.8114825 0.071501,0.5379517 0.062394,1.081974 0.052278,1.6236369 C 6.8455093,7.2550992 6.8320373,7.612611 6.7450262,7.9576383 6.6860062,8.1660734 6.5871853,8.3863154 6.3905521,8.4979512 6.2782426,8.5657442 6.1416437,8.5458472 6.0175288,8.5380932 l 0.010092,-0.00672 C 6.1277918,8.465592 6.231672,8.396114 6.2950795,8.2908838 6.4681,8.0217373 6.4910356,7.6928971 6.5301615,7.3836172 6.5750203,6.7532523 6.5814319,6.1191776 6.5331956,5.4891501 6.4994772,5.199769 6.470126,4.8975715 6.3210503,4.6405683 6.2522467,4.5144276 6.1352132,4.4270749 6.0269493,4.3370211 z"
       id="path20"
       inkscape:connector-curvature="0"
       style="fill:#44a41c;fill-opacity:1" />
  </g>
</svg>
