<?xml version="1.0" encoding="UTF-8" standalone="no"?>
<svg
   xmlns:dc="http://purl.org/dc/elements/1.1/"
   xmlns:cc="http://creativecommons.org/ns#"
   xmlns:rdf="http://www.w3.org/1999/02/22-rdf-syntax-ns#"
   xmlns:svg="http://www.w3.org/2000/svg"
   xmlns="http://www.w3.org/2000/svg"
   xmlns:sodipodi="http://sodipodi.sourceforge.net/DTD/sodipodi-0.dtd"
   xmlns:inkscape="http://www.inkscape.org/namespaces/inkscape"
   height="48"
   width="48"
   version="1.1"
   viewBox="0 0 13.546667 13.546667"
   id="svg2"
   inkscape:version="0.48.5 r10040"
   sodipodi:docname="creator-qt4.svg">
  <sodipodi:namedview
     pagecolor="#ffffff"
     bordercolor="#666666"
     borderopacity="1"
     objecttolerance="10"
     gridtolerance="10"
     guidetolerance="10"
     inkscape:pageopacity="0"
     inkscape:pageshadow="2"
     inkscape:window-width="1366"
     inkscape:window-height="717"
     id="namedview23"
     showgrid="false"
     inkscape:zoom="4.9166667"
     inkscape:cx="28.603612"
     inkscape:cy="37.580353"
     inkscape:window-x="0"
     inkscape:window-y="28"
     inkscape:window-maximized="1"
     inkscape:current-layer="g13" />
  <metadata
     id="metadata4">
    <rdf:RDF>
      <cc:Work
         rdf:about="">
        <dc:format>image/svg+xml</dc:format>
        <dc:type
           rdf:resource="http://purl.org/dc/dcmitype/StillImage" />
        <dc:title></dc:title>
      </cc:Work>
    </rdf:RDF>
  </metadata>
  <defs
     id="defs6">
    <linearGradient
       id="linearGradient3004"
       gradientUnits="userSpaceOnUse"
       x2="0"
       gradientTransform="matrix(1.10525 0 0 1.10525 -134.27874 -295.76183)"
       y1="279.1"
       y2="268.33">
      <stop
         stop-color="#ae2434"
         offset="0"
         id="stop9" />
      <stop
         stop-color="#d67038"
         offset="1"
         id="stop11" />
    </linearGradient>
  </defs>
  <g
     id="g13"
     fill-rule="evenodd">
    <rect
       rx="5.926"
       height="11.853"
       width="11.853"
       y="0.847"
       x="0.847"
       id="rect17"
       style="fill:#3b3a3f;fill-opacity:1"
       fill="url(#linearGradient3004)" />
    <g
       transform="matrix(0.28222223,0,0,0.28222223,-0.20477819,-283.19201)"
       id="g4942"
       style="fill:#00ce9b;fill-opacity:1">
      <path
         sodipodi:nodetypes="cccccccc"
         inkscape:connector-curvature="0"
         id="path4670"
         d="m 37.409336,1014.5114 c -0.06703,0.7852 -0.71313,4.0751 -6.71875,6.2812 -13.720491,5.7087 -7.238196,12.8525 -7.238196,12.8525 1.812689,-4.9156 3.057492,-8.8398 7.953413,-10.5049 1,0.4995 1.129314,0.3725 0.378533,1.0904 -3.006223,2.7765 -4.682868,5.95 -6.4375,9.5625 9.672091,0.2483 12.500501,-11.5215 12.0625,-19.281 z"
         style="fill:#00ce9b;fill-opacity:1;stroke:none" />
      <path
         sodipodi:nodetypes="csccccc"
         style="fill:#00ce9b;fill-opacity:1"
         d="m 20,1040.3622 c -2,-1 -8,-12.6237 -8,-13 0,-1 3.442736,0.058 4,1 1.392064,1.8913 2.909101,5.9502 4,5 1,-1 0.675339,-2.757 1.859358,-5.2089 1.122211,-2.7815 5.058186,-4.0429 1.595965,5.466 C 20.494232,1039.9999 21,1040.3622 20,1040.3622 z"
         id="path3881"
         inkscape:connector-curvature="0" />
    </g>
  </g>
</svg>
